<?xml version="1.0"?>
<svg xmlns="http://www.w3.org/2000/svg" xmlns:xlink="http://www.w3.org/1999/xlink" width="5000" viewBox="0 0 3750 3749.999967" height="5000" preserveAspectRatio="xMidYMid meet"><defs><clipPath id="9a5a160348"><path d="M 375 600 L 3375 600 L 3375 3147 L 375 3147 Z M 375 600 " clip-rule="nonzero"/></clipPath><clipPath id="0f4a0bef57"><path d="M 375 615 L 375 3135 C 375 3143.285156 381.714844 3150 390 3150 L 3360 3150 C 3368.285156 3150 3375 3143.285156 3375 3135 L 3375 615 C 3375 606.714844 3368.285156 600 3360 600 L 390 600 C 381.714844 600 375 606.714844 375 615 Z M 375 615 " clip-rule="nonzero"/></clipPath></defs><g clip-path="url(#9a5a160348)"><g clip-path="url(#0f4a0bef57)"><path fill="#0163df" d="M 3375 1053 L 3375 600.601562 L 1422.898438 600.601562 C 845.101562 600.601562 375 1070.398438 375 1648.199219 L 375 3146.398438 L 827.699219 3146.398438 L 827.699219 2509.5 C 996.898438 2626.800781 1201.800781 2696.101562 1422.898438 2696.101562 L 3375 2696.101562 L 3375 2243.699219 L 2283.898438 2243.699219 C 2360.101562 2133.898438 2415.601562 2009.101562 2445.300781 1874.699219 L 3375 1874.699219 L 3375 1422 L 2445.300781 1422 C 2415.601562 1287.601562 2360.101562 1162.800781 2283.898438 1053 Z M 2018.101562 1648.199219 C 2018.101562 1976.398438 1751.101562 2243.398438 1422.898438 2243.398438 C 1094.699219 2243.398438 827.699219 1976.398438 827.699219 1648.199219 C 827.699219 1320 1094.699219 1053 1422.898438 1053 C 1751.101562 1053 2018.101562 1320 2018.101562 1648.199219 Z M 2018.101562 1648.199219 " fill-opacity="1" fill-rule="nonzero"/></g></g></svg>
